HIERARCHY
ROOT hip
{
  OFFSET 0 0 0
  CHANNELS 6 Xposition Yposition Zposition Zrotation Yrotation Xrotation
  JOINT abdomen
  {
    OFFSET 0 20.6881 -0.73152
    CHANNELS 3 Zrotation Xrotation Yrotation
    JOINT chest
    {
      OFFSET 0 11.7043 -0.48768
      CHANNELS 3 Zrotation Xrotation Yrotation
      JOINT neck
      {
        OFFSET 0 22.1894 -2.19456
        CHANNELS 3 Zrotation Xrotation Yrotation
        JOINT head
        {
          OFFSET -0.24384 7.07133 1.2192
          CHANNELS 3 Zrotation Xrotation Yrotation
          JOINT leftEye
          {
            OFFSET 4.14528 8.04674 8.04672
            CHANNELS 3 Zrotation Xrotation Yrotation
            End Site
            {
              OFFSET 1 0 0
            }
          }
          JOINT rightEye
          {
            OFFSET -3.6576 8.04674 8.04672
            CHANNELS 3 Zrotation Xrotation Yrotation
            End Site
            {
              OFFSET 1 0 0
            }
          }
        }
      }
      JOINT rCollar
      {
        OFFSET -2.68224 19.2634 -4.8768
        CHANNELS 3 Zrotation Xrotation Yrotation
        JOINT rShldr
        {
          OFFSET -8.77824 -1.95073 1.46304
          CHANNELS 3 Zrotation Xrotation Yrotation
          JOINT rForeArm
          {
            OFFSET -28.1742 -1.7115 0.48768
            CHANNELS 3 Zrotation Xrotation Yrotation
            JOINT rHand
            {
              OFFSET -22.5879 0.773209 7.07136
              CHANNELS 3 Zrotation Xrotation Yrotation
              JOINT rThumb1
              {
                OFFSET -1.2192 -0.487915 3.41376
                CHANNELS 3 Zrotation Xrotation Yrotation
                JOINT rThumb2
                {
                  OFFSET -3.37035 -0.52449 3.41376
                  CHANNELS 3 Zrotation Xrotation Yrotation
                  End Site
                  {
                    OFFSET -1.78271 -1.18214 1.43049
                  }
                }
              }
              JOINT rIndex1
              {
                OFFSET -7.75947 0.938293 5.60832
                CHANNELS 3 Zrotation Xrotation Yrotation
                JOINT rIndex2
                {
                  OFFSET -2.54057 -0.884171 1.56538
                  CHANNELS 3 Zrotation Xrotation Yrotation
                  End Site
                  {
                    OFFSET -1.62519 -0.234802 1.16502
                  }
                }
              }
              JOINT rMid1
              {
                OFFSET -8.24714 1.18213 3.41376
                CHANNELS 3 Zrotation Xrotation Yrotation
                JOINT rMid2
                {
                  OFFSET -3.10165 -0.590103 1.0647
                  CHANNELS 3 Zrotation Xrotation Yrotation
                  End Site
                  {
                    OFFSET -2.48547 -0.328903 0.83742
                  }
                }
              }
              JOINT rRing1
              {
                OFFSET -8.82822 0.546677 1.51678
                CHANNELS 3 Zrotation Xrotation Yrotation
                JOINT rRing2
                {
                  OFFSET -2.60934 -0.819778 -0.0198488
                  CHANNELS 3 Zrotation Xrotation Yrotation
                  End Site
                  {
                    OFFSET -2.33842 -0.294052 0.168128
                  }
                }
              }
              JOINT rPinky1
              {
                OFFSET -8.27202 -0.0477905 -0.4584
                CHANNELS 3 Zrotation Xrotation Yrotation
                JOINT rPinky2
                {
                  OFFSET -1.82734 -0.647385 -0.700984
                  CHANNELS 3 Zrotation Xrotation Yrotation
                  End Site
                  {
                    OFFSET -1.69225 -0.51767 -0.607171
                  }
                }
              }
            }
          }
        }
      }
      JOINT lCollar
      {
        OFFSET 2.68224 19.2634 -4.8768
        CHANNELS 3 Zrotation Xrotation Yrotation
        JOINT lShldr
        {
          OFFSET 8.77824 -1.95073 1.46304
          CHANNELS 3 Zrotation Xrotation Yrotation
          JOINT lForeArm
          {
            OFFSET 28.1742 -1.7115 0.48768
            CHANNELS 3 Zrotation Xrotation Yrotation
            JOINT lHand
            {
              OFFSET 22.5879 0.773209 7.07136
              CHANNELS 3 Zrotation Xrotation Yrotation
              JOINT lThumb1
              {
                OFFSET 1.2192 -0.487915 3.41376
                CHANNELS 3 Zrotation Xrotation Yrotation
                JOINT lThumb2
                {
                  OFFSET 3.37035 -0.52449 3.41376
                  CHANNELS 3 Zrotation Xrotation Yrotation
                  End Site
                  {
                    OFFSET 1.78271 -1.18214 1.43049
                  }
                }
              }
              JOINT lIndex1
              {
                OFFSET 7.75947 0.938293 5.60832
                CHANNELS 3 Zrotation Xrotation Yrotation
                JOINT lIndex2
                {
                  OFFSET 2.54057 -0.884171 1.56538
                  CHANNELS 3 Zrotation Xrotation Yrotation
                  End Site
                  {
                    OFFSET 1.62519 -0.234802 1.16502
                  }
                }
              }
              JOINT lMid1
              {
                OFFSET 8.24714 1.18213 3.41376
                CHANNELS 3 Zrotation Xrotation Yrotation
                JOINT lMid2
                {
                  OFFSET 3.10165 -0.590103 1.0647
                  CHANNELS 3 Zrotation Xrotation Yrotation
                  End Site
                  {
                    OFFSET 2.48547 -0.328903 0.83742
                  }
                }
              }
              JOINT lRing1
              {
                OFFSET 8.82822 0.546677 1.51678
                CHANNELS 3 Zrotation Xrotation Yrotation
                JOINT lRing2
                {
                  OFFSET 2.60934 -0.819778 -0.0198488
                  CHANNELS 3 Zrotation Xrotation Yrotation
                  End Site
                  {
                    OFFSET 2.33842 -0.294052 0.168128
                  }
                }
              }
              JOINT lPinky1
              {
                OFFSET 8.27202 -0.0477905 -0.4584
                CHANNELS 3 Zrotation Xrotation Yrotation
                JOINT lPinky2
                {
                  OFFSET 1.82734 -0.647385 -0.700984
                  CHANNELS 3 Zrotation Xrotation Yrotation
                  End Site
                  {
                    OFFSET 1.69225 -0.51767 -0.607171
                  }
                }
              }
            }
          }
        }
      }
    }
  }
  JOINT rButtock
  {
    OFFSET -8.77824 4.35084 1.2192
    CHANNELS 3 Zrotation Xrotation Yrotation
    JOINT rThigh
    {
      OFFSET 0 -1.70687 -2.19456
      CHANNELS 3 Zrotation Xrotation Yrotation
      JOINT rShin
      {
        OFFSET 0 -36.8199 0.73152
        CHANNELS 3 Zrotation Xrotation Yrotation
        JOINT rFoot
        {
          OFFSET 0.73152 -45.1104 -5.12064
          CHANNELS 3 Zrotation Xrotation Yrotation
          End Site
          {
            OFFSET -1.1221 -3.69964 12.103
          }
        }
      }
    }
  }
  JOINT lButtock
  {
    OFFSET 8.77824 4.35084 1.2192
    CHANNELS 3 Zrotation Xrotation Yrotation
    JOINT lThigh
    {
      OFFSET 0 -1.70687 -2.19456
      CHANNELS 3 Zrotation Xrotation Yrotation
      JOINT lShin
      {
        OFFSET 0 -36.8199 0.73152
        CHANNELS 3 Zrotation Xrotation Yrotation
        JOINT lFoot
        {
          OFFSET -0.73152 -45.1104 -5.12064
          CHANNELS 3 Zrotation Xrotation Yrotation
          End Site
          {
            OFFSET 1.1221 -3.69964 12.103
          }
        }
      }
    }
  }
}
MOTION
Frames:	6
Frame Time:	0.00833333
62.5774 80.271 -11.508 -208.644 -75.112 216.046 3.57702 34.5121 -9.50957 0.219001 -10.7899 -2.63261 -14.0918 -9.70318 -10.7206 11.158 -8.94195 -14.3267 -0.0 0.0 0.0 -0.0 0.0 0.0 4.9837e-14 -7.3372e-13 1.48309e-13 61.7415 32.3234 19.7833 -17.2624 -9.9137 32.3893 -0.252332 -14.1582 -2.03174 -1.23651e-09 -4.72246e-11 3.63994e-10 -2.13885e-09 -7.63918e-11 6.16203e-10 -1.2365e-09 -4.72254e-11 3.63989e-10 7.73091 5.47488 0.417314 -1.23651e-09 -4.72274e-11 3.64004e-10 2.90554 0.965183 0.102902 -1.2365e-09 -4.72253e-11 3.63997e-10 10.2786 0.731801 0.0259123 -1.23651e-09 -4.72243e-11 3.64006e-10 2.22167 -0.733487 -0.20892 4.97853e-14 -7.33707e-13 1.4788e-13 -59.0529 41.0082 -12.673 21.4415 -14.9409 -42.3045 0.688632 -22.8834 3.40078 -1.38087e-09 2.52484e-10 6.95175e-10 -2.39941e-09 4.38601e-10 1.17735e-09 -1.38089e-09 2.5248e-10 6.95193e-10 -7.73091 5.47488 -0.417314 -1.38088e-09 2.52477e-10 6.95171e-10 -2.90554 0.965183 -0.102902 -1.3809e-09 2.52475e-10 6.95185e-10 -10.2786 0.731801 -0.0259123 -1.38087e-09 2.52478e-10 6.95166e-10 -2.22167 -0.733487 0.20892 -2.03217e-16 0.0 -3.88251e-19 -23.8161 -38.3464 -21.4606 -0.5935 51.8893 1.39277 -5.48551 -15.5764 -14.9565 2.03217e-16 0.0 3.88251e-19 23.2352 -26.3705 17.2201 0.212857 33.2703 -0.579329 2.01877 -1.32438 15.9448
62.3754 80.4704 -11.3287 -209.842 -75.1749 217.238 3.27214 34.0503 -9.27232 0.132859 -10.6124 -2.59874 -14.0027 -9.75112 -10.6854 10.9691 -8.80594 -14.3093 -0.0 0.0 0.0 -0.0 0.0 0.0 1.81937e-13 -1.61816e-12 2.68661e-13 61.6221 31.8928 19.7784 -17.1399 -9.78989 32.1208 -0.255774 -14.2516 -2.04572 -2.06464e-09 1.66983e-09 5.15201e-10 -3.56183e-09 2.90158e-09 8.66809e-10 -2.06463e-09 1.66983e-09 5.15193e-10 7.73091 5.47488 0.417314 -2.06464e-09 1.66982e-09 5.15218e-10 2.90554 0.965183 0.102902 -2.06463e-09 1.66983e-09 5.15204e-10 10.2786 0.731801 0.0259123 -2.06464e-09 1.66983e-09 5.15218e-10 2.22167 -0.733487 -0.20892 1.81919e-13 -1.61816e-12 2.68304e-13 -59.9177 40.4064 -12.1 21.3491 -14.8098 -42.0638 0.683991 -22.8122 3.38895 -2.54112e-09 5.80381e-11 2.27468e-09 -4.43865e-09 1.01755e-10 3.88777e-09 -2.54113e-09 5.80324e-11 2.27469e-09 -7.73091 5.47488 -0.417314 -2.54113e-09 5.80298e-11 2.27467e-09 -2.90554 0.965183 -0.102902 -2.54114e-09 5.80288e-11 2.27468e-09 -10.2786 0.731801 -0.0259123 -2.54112e-09 5.80314e-11 2.27467e-09 -2.22167 -0.733487 0.20892 -2.03217e-16 0.0 -3.88251e-19 -24.0129 -37.8537 -21.6018 -0.575137 51.2756 1.35673 -5.43582 -15.3864 -14.9175 2.03217e-16 0.0 3.88251e-19 22.4886 -25.6122 15.9337 0.176438 30.4732 -0.515402 1.86234 -0.802024 16.3909
62.2075 80.6588 -11.1564 -210.442 -75.437 217.882 3.09057 33.642 -9.05464 0.0546699 -10.4767 -2.55851 -13.9048 -9.79502 -10.6473 10.754 -8.63036 -14.2946 -0.0 0.0 0.0 -0.0 0.0 0.0 2.54484e-13 -2.01328e-12 3.08663e-13 61.5437 31.4116 19.7656 -16.9928 -9.64338 31.7979 -0.256652 -14.2755 -2.0493 -2.40027e-09 2.64232e-09 5.33627e-10 -4.13695e-09 4.58758e-09 8.93995e-10 -2.40026e-09 2.64232e-09 5.33618e-10 7.73091 5.47488 0.417314 -2.40027e-09 2.64231e-09 5.33646e-10 2.90554 0.965183 0.102902 -2.40026e-09 2.64232e-09 5.33629e-10 10.2786 0.731801 0.0259123 -2.40027e-09 2.64232e-09 5.33646e-10 2.22167 -0.733487 -0.20892 2.54471e-13 -2.0133e-12 3.08365e-13 -60.7113 39.9599 -11.559 21.2682 -14.6955 -41.8552 0.67652 -22.6971 3.36985 -3.07592e-09 -6.81115e-11 3.09818e-09 -5.38082e-09 -1.1685e-10 5.30208e-09 -3.07593e-09 -6.81183e-11 3.0982e-09 -7.73091 5.47488 -0.417314 -3.07593e-09 -6.81207e-11 3.09818e-09 -2.90554 0.965183 -0.102902 -3.07593e-09 -6.8121e-11 3.09818e-09 -10.2786 0.731801 -0.0259123 -3.07591e-09 -6.81183e-11 3.09818e-09 -2.22167 -0.733487 0.20892 -2.03217e-16 0.0 -3.88251e-19 -24.0153 -37.3707 -21.5871 -0.557052 50.666 1.32354 -5.44905 -15.1752 -15.0639 2.03217e-16 0.0 3.88251e-19 21.9193 -24.9213 14.8266 0.150652 28.1648 -0.465705 1.73866 -0.40295 16.8001
62.0157 80.8236 -10.9838 -210.24 -75.8178 217.657 3.09752 33.3033 -8.86832 -0.026404 -10.3959 -2.51062 -13.7736 -9.86415 -10.5998 10.4596 -8.37001 -14.2809 -0.0 0.0 0.0 -0.0 0.0 0.0 2.30379e-13 -1.64808e-12 2.29403e-13 61.4979 30.8747 19.7633 -16.8059 -9.45936 31.39 -0.253987 -14.2038 -2.03856 -1.9577e-09 2.47721e-09 3.82496e-10 -3.37238e-09 4.29945e-09 6.37661e-10 -1.95769e-09 2.47721e-09 3.82487e-10 7.73091 5.47488 0.417314 -1.9577e-09 2.47721e-09 3.82512e-10 2.90554 0.965183 0.102902 -1.95769e-09 2.47721e-09 3.82497e-10 10.2786 0.731801 0.0259123 -1.9577e-09 2.47722e-09 3.82513e-10 2.22167 -0.733487 -0.20892 2.30315e-13 -1.64812e-12 2.29153e-13 -61.4226 39.7088 -11.0403 21.2014 -14.602 -41.6838 0.665358 -22.5222 3.34094 -2.65448e-09 -9.34209e-11 2.79119e-09 -4.64643e-09 -1.60875e-10 4.7786e-09 -2.65449e-09 -9.34286e-11 2.7912e-09 -7.73091 5.47488 -0.417314 -2.65448e-09 -9.34303e-11 2.79119e-09 -2.90554 0.965183 -0.102902 -2.65449e-09 -9.34301e-11 2.79119e-09 -10.2786 0.731801 -0.0259123 -2.65447e-09 -9.34267e-11 2.79119e-09 -2.22167 -0.733487 0.20892 -2.03217e-16 0.0 -3.88251e-19 -23.743 -36.9241 -21.3756 -0.539944 50.0935 1.29501 -5.56156 -14.9475 -15.4915 2.03217e-16 0.0 3.88251e-19 21.5741 -24.3091 13.9017 0.132338 26.4489 -0.429946 1.66395 -0.165154 17.183
61.8251 80.9351 -10.7818 -209.816 -76.2329 217.162 3.21291 32.9924 -8.68694 -0.105149 -10.3452 -2.45424 -13.6194 -9.9634 -10.5421 10.1006 -8.04069 -14.2595 -0.0 0.0 0.0 -0.0 0.0 0.0 1.47992e-13 -8.15662e-13 7.70415e-14 61.4788 30.2768 19.7623 -16.5918 -9.25066 30.9278 -0.249225 -14.0736 -2.01908 -1.03963e-09 1.65615e-09 1.17793e-10 -1.789e-09 2.87292e-09 1.90814e-10 -1.03962e-09 1.65615e-09 1.17786e-10 7.73091 5.47488 0.417314 -1.03963e-09 1.65614e-09 1.17802e-10 2.90554 0.965183 0.102902 -1.03962e-09 1.65615e-09 1.17793e-10 10.2786 0.731801 0.0259123 -1.03963e-09 1.65615e-09 1.17804e-10 2.22167 -0.733487 -0.20892 1.4784e-13 -8.15715e-13 7.68396e-14 -62.0682 39.622 -10.5658 21.1453 -14.524 -41.5391 0.652354 -22.3151 3.30683 -1.63776e-09 -7.05888e-11 1.80367e-09 -2.86891e-09 -1.21602e-10 3.08894e-09 -1.63777e-09 -7.05974e-11 1.80368e-09 -7.73091 5.47488 -0.417314 -1.63776e-09 -7.05981e-11 1.80367e-09 -2.90554 0.965183 -0.102902 -1.63777e-09 -7.05974e-11 1.80367e-09 -10.2786 0.731801 -0.0259123 -1.63775e-09 -7.0593e-11 1.80367e-09 -2.22167 -0.733487 0.20892 -2.03217e-16 0.0 -3.88251e-19 -23.3046 -36.5112 -21.0394 -0.52345 49.5355 1.26861 -5.72912 -14.6894 -16.0973 2.03217e-16 0.0 3.88251e-19 21.3559 -23.7487 13.0823 0.117824 25.0908 -0.401433 1.61046 0.0179153 17.5936
61.6865 81.0173 -10.5638 -208.773 -76.6548 216.157 3.34613 32.7053 -8.50093 -0.160889 -10.3133 -2.39283 -13.4896 -10.0232 -10.4893 9.78566 -7.73225 -14.2411 -0.0 0.0 0.0 -0.0 0.0 0.0 6.20234e-14 9.40241e-14 -9.54904e-14 61.5083 29.6333 19.7309 -16.3715 -9.03817 30.4581 -0.24355 -13.9159 -1.99554 -6.18473e-11 7.02217e-10 -2.19727e-10 -1.02806e-10 1.21608e-09 -3.81072e-10 -6.18404e-11 7.02215e-10 -2.19732e-10 7.73091 5.47488 0.417314 -6.18479e-11 7.02215e-10 -2.19725e-10 2.90554 0.965183 0.102902 -6.18393e-11 7.02217e-10 -2.19728e-10 10.2786 0.731801 0.0259123 -6.18464e-11 7.02217e-10 -2.1972e-10 2.22167 -0.733487 -0.20892 6.1789e-14 9.39559e-14 -9.56546e-14 -62.6853 39.6359 -10.1223 21.0981 -14.4587 -41.4171 0.638473 -22.0908 3.27 -4.99335e-10 -3.33157e-11 6.40775e-10 -8.77017e-10 -5.73346e-11 1.09818e-09 -4.99343e-10 -3.33245e-11 6.40782e-10 -7.73091 5.47488 -0.417314 -4.99338e-10 -3.33243e-11 6.40777e-10 -2.90554 0.965183 -0.102902 -4.99349e-10 -3.33232e-11 6.40776e-10 -10.2786 0.731801 -0.0259123 -4.99326e-10 -3.33179e-11 6.40771e-10 -2.22167 -0.733487 0.20892 -2.03217e-16 0.0 -3.88251e-19 -22.8167 -36.069 -20.6267 -0.505779 48.9351 1.24171 -5.89382 -14.4004 -16.7404 2.03217e-16 0.0 3.88251e-19 21.1882 -23.2585 12.3978 0.106868 24.0331 -0.378671 1.57334 0.154846 17.9659
